<?xml version="1.0" encoding="utf-8"?><svg xmlns="http://www.w3.org/2000/svg" xmlns:xlink="http://www.w3.org/1999/xlink"><symbol viewBox="0 0 24 24" id="star" xmlns="http://www.w3.org/2000/svg"><path d="M12 17.25L5.812 21l1.641-7.031-5.438-4.734 7.172-.609L12 2.017l2.813 6.609 7.172.609-5.438 4.734L18.188 21z"/></symbol><symbol viewBox="0 0 24 24" id="star_border" xmlns="http://www.w3.org/2000/svg"><path d="M12 15.422l3.75 2.25-.984-4.266 3.328-2.906-4.406-.375L12 6.094l-1.688 4.031-4.406.375 3.328 2.906-.984 4.266zm9.984-6.188l-5.438 4.734 1.641 7.031-6.188-3.75-6.188 3.75 1.641-7.031-5.438-4.734 7.172-.609 2.813-6.609 2.813 6.609z"/></symbol></svg>